<svg width="509" height="493" viewBox="0 0 509 493" fill="none" xmlns="http://www.w3.org/2000/svg">
<path d="M428.013 469.563C444.403 460.29 460.852 450.372 473.505 436.076C486.158 421.78 494.662 402.278 492.05 383.003C489.649 365.277 478.386 349.993 475.396 332.365C470.264 302.115 490.093 273.714 494.72 243.376C498.2 220.561 492.579 196.382 479.469 177.775C467.519 160.813 449.928 148.644 439.141 130.852C424.604 106.876 423.853 75.0325 406.101 53.5476C393.243 37.9855 373.716 30.6723 355.053 24.1495C321.977 12.5897 288.221 1.44 253.366 0.118397C218.511 -1.20321 181.891 8.44813 156.724 33.6706C148.902 41.5101 142.235 50.8876 138.862 61.6491C130.886 87.0949 142.304 114.094 149.463 139.803C150.863 144.833 152.111 150.14 151.053 155.259C150.011 160.303 146.85 164.563 143.518 168.371C127.995 186.119 107.334 197.837 87.3974 209.847C67.4607 221.858 47.3144 234.992 33.8768 254.509C20.4387 274.025 15.1651 301.544 26.8444 322.258C31.3756 330.295 38.2876 337.214 40.1232 346.341C43.3682 362.475 29.905 376.269 21.9875 390.531C8.84187 414.21 11.2682 446.271 27.8124 467.5C44.3567 488.728 73.9214 497.715 98.788 489.075L428.013 469.563Z" fill="#CBDDEE"/>
<path d="M68.0524 466.529C70.5322 419.904 37.467 357.011 3.57443 353.921C-8.82498 381.05 12.5662 452.826 44.1367 465.96C75.7077 479.095 68.0524 466.529 68.0524 466.529Z" fill="#2A94F4"/>
<path d="M48.4773 455.667C48.3161 452.165 47.6714 448.463 46.8949 444.818C46.1079 441.16 45.1583 437.51 44.1315 433.878C42.0735 426.613 39.6918 419.417 37.1185 412.295C34.5386 405.174 31.7586 398.124 28.7155 391.197C27.1857 387.738 25.589 384.31 23.8582 380.955C22.9787 379.288 22.0899 377.622 21.1052 376.019C20.1272 374.415 19.1056 372.821 17.8132 371.465C19.1819 372.741 20.3007 374.28 21.3726 375.829C22.453 377.379 23.4391 378.995 24.4171 380.617C26.3447 383.877 28.1409 387.219 29.8723 390.596C33.3183 397.36 36.5088 404.265 39.5069 411.266C42.4992 418.27 45.3067 425.368 47.8131 432.617C49.0647 436.242 50.2437 439.905 51.2739 443.646C52.2903 447.399 53.2043 451.192 53.6319 455.309L48.4773 455.667Z" fill="#CCE9FF"/>
<path d="M84.2237 457.092C84.2237 457.092 83.5832 458.937 80.8189 459.514C80.2609 459.633 79.6152 459.698 78.8709 459.682C75.8122 459.633 71.0747 458.268 63.8053 453.8C46.0374 442.867 45.7018 398.384 55.5441 383.317C75.5955 388.449 89.8448 429.37 84.2237 457.092Z" fill="#0E538C"/>
<path d="M80.8189 459.515C80.2609 459.633 79.6152 459.698 78.8709 459.682C78.8605 459.558 78.8453 459.439 78.8349 459.315C78.184 453.098 77.2074 446.898 76.0194 440.746C74.8361 434.589 73.4309 428.475 71.757 422.442C70.915 419.425 70.0005 416.425 68.9462 413.484C68.6721 412.755 68.4138 412.016 68.1194 411.293L67.6856 410.203L67.2205 409.134C66.5748 407.72 65.9031 406.301 64.999 405.038C65.9443 406.269 66.6678 407.661 67.3651 409.058L67.8714 410.116L68.3417 411.19C68.6622 411.908 68.9462 412.636 69.2458 413.359C70.403 416.273 71.426 419.247 72.3714 422.236C74.2572 428.232 75.8795 434.313 77.2847 440.455C78.6898 446.596 79.8783 452.791 80.7568 459.062C80.7776 459.212 80.798 459.364 80.8189 459.515Z" fill="#0E538C"/>
<path d="M165.76 457.412C165.76 457.412 165.198 459.029 162.775 459.535C162.286 459.639 161.72 459.696 161.068 459.682C158.387 459.639 154.235 458.443 147.864 454.526C132.291 444.944 131.997 405.956 140.623 392.75C158.197 397.248 170.686 433.115 165.76 457.412Z" fill="#51AEF4"/>
<path opacity="0.5" d="M162.775 459.535C162.286 459.639 161.72 459.696 161.068 459.682C161.059 459.573 161.046 459.469 161.036 459.36C160.466 453.911 159.61 448.477 158.568 443.085C157.532 437.688 156.3 432.329 154.833 427.041C154.095 424.398 153.293 421.768 152.369 419.19C152.13 418.551 151.903 417.903 151.645 417.27L151.265 416.314L150.857 415.378C150.291 414.138 149.702 412.894 148.91 411.788C149.739 412.866 150.373 414.086 150.984 415.311L151.428 416.238L151.84 417.18C152.121 417.808 152.37 418.447 152.633 419.081C153.647 421.635 154.544 424.241 155.372 426.862C157.025 432.116 158.447 437.447 159.679 442.829C160.91 448.212 161.952 453.642 162.722 459.138C162.739 459.27 162.757 459.403 162.775 459.535Z" fill="#51AEF4"/>
<path d="M440.279 466.529C437.799 419.904 470.864 357.011 504.757 353.921C517.156 381.05 495.765 452.826 464.194 465.96C432.623 479.095 440.279 466.529 440.279 466.529Z" fill="#51AEF4"/>
<path d="M459.854 455.667C460.015 452.165 460.66 448.463 461.436 444.818C462.223 441.16 463.173 437.51 464.2 433.878C466.258 426.613 468.639 419.417 471.213 412.295C473.792 405.174 476.572 398.124 479.616 391.197C481.145 387.738 482.742 384.31 484.473 380.955C485.352 379.288 486.241 377.622 487.226 376.019C488.204 374.415 489.225 372.821 490.518 371.465C489.149 372.741 488.03 374.28 486.958 375.829C485.878 377.379 484.892 378.995 483.914 380.617C481.986 383.877 480.19 387.219 478.459 390.596C475.013 397.36 471.822 404.265 468.824 411.266C465.832 418.27 463.024 425.368 460.518 432.617C459.266 436.242 458.087 439.905 457.057 443.646C456.041 447.399 455.127 451.192 454.699 455.309L459.854 455.667Z" fill="#51AEF4"/>
<path d="M374.511 468.269C376.195 436.61 353.743 393.904 330.729 391.806C322.31 410.227 336.835 458.964 358.272 467.883C379.709 476.801 374.511 468.269 374.511 468.269Z" fill="#2A94F4"/>
<path d="M361.219 460.893C361.11 458.515 360.672 456.001 360.145 453.526C359.611 451.043 358.966 448.564 358.269 446.098C356.871 441.164 355.254 436.278 353.507 431.442C351.755 426.607 349.867 421.82 347.801 417.116C346.762 414.767 345.678 412.44 344.502 410.162C343.905 409.029 343.302 407.898 342.633 406.81C341.969 405.721 341.275 404.639 340.398 403.718C341.327 404.584 342.087 405.63 342.815 406.681C343.548 407.734 344.218 408.831 344.882 409.932C346.191 412.146 347.41 414.415 348.586 416.709C350.926 421.302 353.093 425.99 355.128 430.744C357.16 435.5 359.067 440.319 360.768 445.242C361.618 447.704 362.419 450.19 363.118 452.731C363.809 455.279 364.429 457.855 364.72 460.651L361.219 460.893Z" fill="#2A94F4"/>
<path d="M364.9 457.811C365.657 442.572 378.509 423.348 389.624 423.585C392.743 432.852 383.386 455.389 372.689 458.501C361.991 461.613 364.9 457.811 364.9 457.811Z" fill="#51AEF4"/>
<path d="M371.624 454.998C371.793 453.866 372.127 452.687 372.502 451.531C372.88 450.371 373.311 449.221 373.766 448.078C374.678 445.793 375.693 443.542 376.768 441.323C377.845 439.104 378.985 436.915 380.206 434.776C380.819 433.708 381.453 432.652 382.127 431.626C382.469 431.116 382.814 430.607 383.187 430.123C383.559 429.638 383.944 429.157 384.41 428.764C383.922 429.128 383.507 429.588 383.107 430.052C382.704 430.516 382.329 431.004 381.957 431.496C381.222 432.484 380.526 433.504 379.85 434.538C378.504 436.61 377.236 438.736 376.027 440.901C374.82 443.068 373.67 445.271 372.612 447.534C372.084 448.666 371.578 449.813 371.118 450.991C370.662 452.173 370.238 453.372 369.961 454.694L371.624 454.998Z" fill="#2797E2"/>
<path d="M154.357 457.811C155.114 442.572 167.966 423.348 179.081 423.585C182.2 432.852 172.843 455.389 162.146 458.501C151.448 461.613 154.357 457.811 154.357 457.811Z" fill="#0E538C"/>
<path d="M161.081 454.998C161.25 453.866 161.584 452.687 161.959 451.531C162.337 450.371 162.768 449.221 163.223 448.078C164.135 445.793 165.15 443.542 166.225 441.323C167.303 439.104 168.442 436.915 169.663 434.776C170.276 433.708 170.91 432.652 171.584 431.626C171.926 431.116 172.271 430.607 172.644 430.123C173.016 429.638 173.401 429.157 173.867 428.764C173.379 429.128 172.964 429.588 172.564 430.052C172.161 430.516 171.786 431.004 171.414 431.496C170.679 432.484 169.983 433.504 169.307 434.538C167.961 436.61 166.693 438.736 165.484 440.901C164.277 443.068 163.127 445.271 162.069 447.534C161.541 448.666 161.035 449.813 160.575 450.991C160.119 452.173 159.695 453.372 159.418 454.694L161.081 454.998Z" fill="#0E538C"/>
<path d="M424.108 457.092C424.108 457.092 424.748 458.937 427.512 459.514C428.07 459.633 428.716 459.698 429.46 459.682C432.519 459.633 437.257 458.268 444.526 453.8C462.294 442.867 462.629 398.384 452.787 383.317C432.736 388.449 418.486 429.37 424.108 457.092Z" fill="#2A94F4"/>
<path d="M427.512 459.515C428.07 459.633 428.716 459.698 429.46 459.682C429.471 459.558 429.486 459.439 429.496 459.315C430.147 453.098 431.124 446.898 432.312 440.746C433.495 434.589 434.9 428.475 436.574 422.442C437.416 419.425 438.331 416.425 439.385 413.484C439.659 412.755 439.917 412.016 440.212 411.293L440.646 410.203L441.111 409.134C441.756 407.72 442.428 406.301 443.332 405.038C442.387 406.269 441.663 407.661 440.966 409.058L440.46 410.116L439.989 411.19C439.669 411.908 439.385 412.636 439.085 413.359C437.928 416.273 436.905 419.247 435.96 422.236C434.074 428.232 432.452 434.313 431.047 440.455C429.641 446.596 428.453 452.791 427.574 459.062C427.554 459.212 427.533 459.364 427.512 459.515Z" fill="#2A94F4"/>
<path d="M210.61 128.127L273.761 85.3158L280.495 64.999L280.079 87.6619L226.647 136.229L210.61 128.127Z" fill="#DF9481"/>
<path d="M186.574 143.188L226.558 117.307L234.646 148.284L189.487 179.261L186.574 143.188Z" fill="#CCE9FF"/>
<path opacity="0.2" d="M186.574 143.188L226.558 117.307L234.646 148.284L189.487 179.261L186.574 143.188Z" fill="#CCE9FF"/>
<path d="M105.153 336.365L88.3629 371.382L85.9878 336.903L93.9105 333.054L85.2288 331.687L85.2582 326.769L105.074 326.31L105.153 336.365Z" fill="#FFBE55"/>
<path d="M169.106 227.212C169.106 227.212 188.311 303.23 182.752 313.259C177.193 323.29 104.092 339.8 104.092 339.8L103.908 324.873C103.908 324.873 154.999 300.147 161.064 301.731C148.934 290.117 136.93 230.907 136.93 230.907L169.106 227.212Z" fill="#093C59"/>
<path d="M93.2615 398.317L107.651 434.482L81.1209 413.816L83.5126 405.038L76.8457 411.005L73.3025 407.767L85.9261 391.806L93.2615 398.317Z" fill="#FFBE55"/>
<path d="M165.485 227.893C165.485 227.893 122.845 333.553 97.3261 405.038C81.657 405.038 83.5874 389.129 83.5874 389.129C83.5874 389.129 114.52 239.248 132.135 217.149C159.226 219.074 165.485 227.893 165.485 227.893Z" fill="#0B4870"/>
<path d="M136.93 179.261L85.3781 229.052L57.5522 234.286L85.16 236.192L140.017 197.586L136.93 179.261Z" fill="#DF9481"/>
<path d="M183.355 130.762C195.103 130.762 204.626 120.259 204.626 107.302C204.626 94.3455 195.103 83.842 183.355 83.842C171.607 83.842 162.084 94.3455 162.084 107.302C162.084 120.259 171.607 130.762 183.355 130.762Z" fill="#0D3140"/>
<path d="M203.447 91.6142C203.447 91.6142 209.15 128.787 202.534 136.228C182.461 134.799 177.444 126.875 172.426 115.915C167.407 104.956 178.812 82.5611 203.447 91.6142Z" fill="#DF9481"/>
<path d="M208.47 91.5825C207.448 99.7281 177.207 120.513 170.577 116.886C169.63 102.046 177.557 75.0513 208.47 91.5825Z" fill="#0D3140"/>
<path d="M175.488 117.688C172.962 114.995 170.523 114.682 170.12 118.134C169.755 121.257 173.673 125.843 176.515 125.119C179.356 124.396 175.488 117.688 175.488 117.688Z" fill="#DF9481"/>
<path d="M176.534 87.5975C169.667 77.7263 157.625 72.0596 145.996 73.2272C142.056 73.6229 138.072 74.8098 135.006 77.4248C131.94 80.0398 129.954 84.2705 130.651 88.3403C131.797 95.035 139.505 99.6935 138.777 106.452C138.457 109.414 136.451 111.947 134.041 113.544C131.632 115.142 128.833 115.951 126.081 116.74C119.897 118.511 113.52 120.381 108.526 124.582C103.532 128.782 100.258 135.98 102.392 142.295C103.779 146.4 107.298 150.119 106.448 154.38C105.572 158.773 100.581 160.787 98.4271 164.669C96.317 168.471 97.4192 173.58 100.219 176.86C103.019 180.14 107.169 181.841 111.305 182.642C117.975 183.935 126.037 182.464 129.34 176.275C131.64 171.964 130.956 166.558 129.288 161.94C127.621 157.323 125.059 153.083 123.619 148.383C122.18 143.682 122.05 138.123 124.953 134.23C128 130.144 133.358 129.051 138.198 127.926C143.037 126.802 148.4 124.864 150.414 120.132C152.234 115.855 150.779 110.303 153.603 106.669C156.142 103.399 160.79 103.363 164.618 102.046C169.888 100.232 174.093 95.3781 175.295 89.7208L176.534 87.5975Z" fill="#0D3140"/>
<path d="M189.487 129.772L188.497 142.277L196.615 162.698L177.557 142.837L176.534 123.679L189.487 129.772Z" fill="#DF9481"/>
<path d="M200.275 186.266L186.571 200.854L173.824 236.192L137.139 222.605L124.727 218.003L136.929 206.858C136.929 206.858 124.313 193.128 121.852 183.074C144.848 162.725 162.501 146.386 177.555 142.838H181.569L196.616 162.694L200.275 186.266Z" fill="#CCE9FF"/>
<path opacity="0.5" d="M161.064 184.629L137.139 222.606L124.726 218.004L136.929 206.859L161.064 184.629Z" fill="#CCE9FF"/>
<path d="M426.502 336.393L453.288 373.349L443.342 315.507L422.693 319.526L426.502 336.393Z" fill="#FFBE55"/>
<path d="M361.779 241.689C353.878 266.251 344.397 301.09 356.531 320.884C368.664 340.679 428.755 337.572 428.755 337.572L426.383 319.306C426.383 319.306 384.75 310.434 386.559 304.779C388.367 299.124 398.806 258.317 397.226 252.828C395.647 247.338 393.487 230.804 393.487 230.804L361.779 241.689Z" fill="#B1D9F2"/>
<path d="M435.596 408.404L404.43 441.402L457.804 422.81L451.03 402.043L435.596 408.404Z" fill="#FFBE55"/>
<path d="M364.762 237.048C365.184 245.8 432.669 409.651 432.669 409.651L452.461 404.694C452.461 404.694 416.626 254.224 412.955 234.515C409.283 214.807 364.762 237.048 364.762 237.048Z" fill="#CCE9FF"/>
<path d="M438.99 185.843L444.607 193.177L458.151 242.503L461.815 263.294L452.105 260.354L450.137 246.969L447.615 252.25L444.845 252.784L448.276 241.432L432.707 201.022L422.872 194.143L438.99 185.843Z" fill="#FFE3CA"/>
<path d="M353.66 124.695L288.528 85.2539L280.495 64.999L280.078 87.6619L338.034 133.628L353.66 124.695Z" fill="#FFE3CA"/>
<path d="M376.426 137.667L345.551 114.288L329.246 132.666L366.261 166.154L376.426 137.667Z" fill="#0B3E5B"/>
<path d="M376.426 137.667C375.188 138.818 363.282 148.287 357.799 159.092C352.316 169.898 358.185 246.168 358.185 246.168L421.961 242.816L409.231 186.472L421.94 200.807L444.04 181.41C444.04 181.41 420.527 147.896 415.54 144.409C406.187 137.872 376.426 137.667 376.426 137.667Z" fill="#0B4870"/>
<path d="M378.041 84.6023C383.138 84.9974 408.22 89.1866 387.467 120.892C383.109 129.243 378.041 84.6023 378.041 84.6023Z" fill="#0B4870"/>
<path d="M356.241 92.0441C356.241 92.0441 353.061 125.388 360.027 132.473C365.021 131.852 372.762 131.684 376.076 130.393C386.017 126.521 384.521 119.314 388.397 114.399C395.793 105.022 380.408 81.7089 356.241 92.0441Z" fill="#FFE3CA"/>
<path d="M374.836 125.229L375.879 138.145L373.736 145.526C372.77 148.349 376.223 150.509 378.15 148.288L388.677 138.246L387.88 114.426L374.836 125.229Z" fill="#FFE3CA"/>
<path d="M367.489 101.271C365.076 101.135 362.704 101.72 360.332 102.202C357.96 102.685 355.32 102.828 353.31 101.428C350.553 99.5082 350.027 95.5142 347.983 92.7908C346.527 90.8522 344.374 89.6529 342.568 88.0683C342.302 87.8351 342.035 87.5816 341.902 87.2474C341.6 86.4917 342.072 85.6539 342.571 85.0216C344.345 82.773 346.767 81.0483 349.474 80.3477C352.182 79.647 355.166 80.0164 357.546 81.5361C359.716 82.9216 361.415 85.2261 363.881 85.8757C367.603 86.8562 371.098 83.6965 374.873 82.9711C376.185 82.719 377.55 82.7686 378.842 83.1152C379.664 83.3355 380.468 83.6821 381.127 84.2407C382.938 85.7742 383.346 88.5828 385.086 90.203C386.899 91.8906 389.743 91.9099 391.541 93.6152C392.795 94.8046 393.313 96.5996 393.76 98.306C394.319 100.44 394.812 102.878 393.667 104.739C393.168 105.551 391.891 112.768 391.102 113.27C386.568 116.162 381.841 110.422 377.517 108.187C375.954 107.378 374.7 106.065 373.723 104.556C372.911 103.302 371.117 101.476 367.489 101.271Z" fill="#0B4870"/>
<path d="M382.931 104.421L383.05 116.492L385.353 116.371L389.098 104.096L382.931 104.421Z" fill="#0B4870"/>
<path d="M386.095 105.931C390.619 102.339 392.065 103.615 391.682 108.998C391.299 114.381 385.354 116.37 385.354 116.37L386.095 105.931Z" fill="#FFE3CA"/>
<path d="M366.143 195.733C369.77 195.543 372.391 188.78 371.998 180.628C371.605 172.477 368.346 166.023 364.72 166.214C361.093 166.405 358.472 173.168 358.865 181.319C359.258 189.471 362.517 195.924 366.143 195.733Z" fill="#FFBE55"/>
<path d="M272.582 69.7461L262.08 58.2502" stroke="#FFBE55" stroke-width="2" stroke-miterlimit="10" stroke-linecap="round"/>
<path d="M286.876 69.7461L297.378 58.2502" stroke="#FFBE55" stroke-width="2" stroke-miterlimit="10" stroke-linecap="round"/>
<path d="M291.437 52.1528L292.127 51.3977" stroke="#FFBE55" stroke-width="2" stroke-miterlimit="10" stroke-linecap="round"/>
<path d="M286.876 57.1456L290.233 53.4709" stroke="#FFBE55" stroke-width="2" stroke-miterlimit="10" stroke-linecap="round"/>
<path d="M276.257 57.1456L272.9 53.4709" stroke="#FFBE55" stroke-width="2" stroke-miterlimit="10" stroke-linecap="round"/>
<path d="M264.015 41.6587C253.816 41.6587 245.555 50.2929 245.555 60.9455C245.555 50.2929 237.289 41.6587 227.09 41.6587C237.289 41.6587 245.555 33.0244 245.555 22.3718C245.555 33.0244 253.816 41.6587 264.015 41.6587Z" fill="#FFBE55"/>
<path d="M304.994 120.401C299.886 120.401 295.748 124.726 295.748 130.061C295.748 124.726 291.608 120.401 286.5 120.401C291.608 120.401 295.748 116.077 295.748 110.742C295.749 116.077 299.887 120.401 304.994 120.401Z" fill="#FFBE55"/>
</svg>
