<?xml version="1.0" encoding="iso-8859-1"?>
<!-- Generator: Adobe Illustrator 23.0.2, SVG Export Plug-In . SVG Version: 6.00 Build 0)  -->
<svg version="1.1" id="Layer_2" xmlns="http://www.w3.org/2000/svg" xmlns:xlink="http://www.w3.org/1999/xlink" x="0px" y="0px"
	 viewBox="0 0 1080 1080" style="enable-background:new 0 0 1080 1080;" xml:space="preserve">
<g>
	<g>
		<path style="fill:#F0FAFF;" d="M905.708,971.292c34.571-18.725,69.27-38.756,95.959-67.627s44.627-68.254,39.119-107.182
			c-5.065-35.796-28.824-66.664-35.131-102.263c-10.824-61.091,31.002-118.446,40.763-179.715
			c7.34-46.074-4.517-94.905-32.17-132.482c-25.208-34.254-62.314-58.829-85.068-94.761
			c-30.663-48.42-32.247-112.728-69.693-156.117c-27.122-31.428-68.313-46.197-107.68-59.37
			C682.038,48.43,610.834,25.913,537.312,23.244S386.545,40.066,333.458,91.003c-16.5,15.832-30.564,34.77-37.679,56.503
			c-16.823,51.388,7.262,105.913,22.362,157.833c2.954,10.157,5.586,20.875,3.355,31.214c-2.198,10.185-8.866,18.788-15.894,26.48
			c-32.745,35.842-76.326,59.506-118.38,83.761s-84.55,50.781-112.895,90.194c-28.346,39.413-39.47,94.988-14.834,136.821
			c9.558,16.23,24.138,30.204,28.01,48.636c6.845,32.583-21.554,60.439-38.255,89.241c-27.729,47.821-22.611,112.569,12.287,155.44
			s97.261,61.02,149.714,43.571L905.708,971.292z"/>
	</g>
	<g>
		<path style="fill:#2A94F4;" d="M146.416,965.165c5.231-94.159-64.516-221.172-136.008-227.413
			c-26.155,54.788,18.967,199.74,85.561,226.265C162.564,990.543,146.416,965.165,146.416,965.165z"/>
		<g>
			<path style="fill:#CCE9FF;" d="M105.125,943.229c-0.34-7.072-1.7-14.548-3.338-21.91c-1.66-7.386-3.663-14.758-5.829-22.092
				c-4.341-14.673-9.365-29.206-14.793-43.589c-5.442-14.38-11.306-28.618-17.725-42.607c-3.227-6.985-6.595-13.909-10.246-20.683
				c-1.855-3.368-3.73-6.732-5.807-9.969c-2.063-3.239-4.218-6.458-6.944-9.197c2.887,2.577,5.247,5.686,7.508,8.814
				c2.279,3.13,4.359,6.394,6.422,9.668c4.066,6.584,7.855,13.333,11.507,20.154c7.269,13.66,13.999,27.605,20.323,41.743
				c6.312,14.145,12.234,28.479,17.521,43.118c2.64,7.322,5.127,14.718,7.3,22.274c2.144,7.579,4.072,15.238,4.974,23.554
				L105.125,943.229z"/>
		</g>
	</g>
	<g>
		<path style="fill:#0E538C;" d="M180.527,946.107c0,0-1.351,3.727-7.182,4.893c-1.177,0.24-2.539,0.371-4.109,0.338
			c-6.452-0.098-16.445-2.855-31.779-11.879c-37.479-22.079-38.187-111.912-17.426-142.34
			C162.327,807.483,192.384,890.123,180.527,946.107z"/>
		<g>
			<path style="fill:#0E538C;" d="M173.345,951c-1.177,0.24-2.539,0.371-4.109,0.338c-0.022-0.251-0.054-0.49-0.076-0.741
				c-1.373-12.555-3.433-25.076-5.939-37.5c-2.496-12.435-5.46-24.782-8.991-36.966c-1.776-6.092-3.705-12.151-5.929-18.091
				c-0.578-1.471-1.123-2.964-1.744-4.425l-0.915-2.201l-0.981-2.158c-1.362-2.855-2.779-5.721-4.686-8.272
				c1.994,2.485,3.52,5.296,4.991,8.119l1.068,2.136l0.992,2.169c0.676,1.449,1.275,2.921,1.907,4.381
				c2.441,5.885,4.599,11.89,6.593,17.927c3.978,12.108,7.4,24.39,10.364,36.792c2.964,12.402,5.471,24.913,7.324,37.577
				C173.258,950.389,173.301,950.695,173.345,951z"/>
		</g>
	</g>
	<g>
		<path style="fill:#51AEF4;" d="M352.517,946.753c0,0-1.185,3.267-6.295,4.289c-1.032,0.21-2.226,0.325-3.601,0.296
			c-5.655-0.086-14.414-2.503-27.853-10.412c-32.849-19.352-33.47-98.089-15.274-124.758
			C336.565,825.252,362.909,897.685,352.517,946.753z"/>
		<g>
			<path style="opacity:0.5;fill:#51AEF4;" d="M346.222,951.042c-1.032,0.21-2.226,0.325-3.601,0.296
				c-0.019-0.22-0.048-0.43-0.067-0.65c-1.203-11.004-3.009-21.979-5.206-32.868c-2.187-10.899-4.786-21.721-7.88-32.4
				c-1.557-5.339-3.248-10.65-5.196-15.856c-0.506-1.29-0.984-2.598-1.528-3.878l-0.802-1.93l-0.86-1.891
				c-1.194-2.503-2.436-5.015-4.107-7.25c1.748,2.178,3.085,4.642,4.375,7.116l0.936,1.872l0.869,1.901
				c0.592,1.27,1.118,2.56,1.672,3.84c2.14,5.158,4.031,10.421,5.779,15.713c3.486,10.612,6.486,21.377,9.084,32.247
				c2.598,10.87,4.795,21.836,6.419,32.935C346.146,950.507,346.184,950.775,346.222,951.042z"/>
		</g>
	</g>
	<g>
		<path style="fill:#0E538C;" d="M931.58,965.165c-5.231-94.159,64.516-221.172,136.008-227.413
			c26.155,54.788-18.967,199.74-85.561,226.265C915.432,990.543,931.58,965.165,931.58,965.165z"/>
		<g>
			<path style="fill:#0E538C;" d="M972.871,943.229c0.34-7.072,1.7-14.548,3.338-21.91c1.66-7.386,3.663-14.758,5.829-22.092
				c4.341-14.673,9.365-29.206,14.793-43.589c5.442-14.38,11.306-28.618,17.725-42.607c3.227-6.985,6.595-13.909,10.246-20.683
				c1.855-3.368,3.73-6.732,5.807-9.969c2.063-3.239,4.218-6.458,6.944-9.197c-2.887,2.577-5.247,5.686-7.508,8.814
				c-2.279,3.13-4.359,6.394-6.422,9.668c-4.066,6.584-7.855,13.333-11.507,20.154c-7.269,13.66-13.999,27.605-20.323,41.743
				c-6.312,14.145-12.234,28.479-17.521,43.118c-2.64,7.322-5.127,14.718-7.3,22.274c-2.144,7.579-4.072,15.238-4.974,23.554
				L972.871,943.229z"/>
		</g>
	</g>
	<g>
		<path style="fill:#0E538C;" d="M792.851,968.679c3.552-63.936-43.808-150.181-92.352-154.418
			c-17.76,37.202,12.879,135.628,58.098,153.639C803.816,985.911,792.851,968.679,792.851,968.679z"/>
		<g>
			<path style="fill:#0E538C;" d="M764.814,953.783c-0.231-4.802-1.154-9.879-2.266-14.878c-1.127-5.015-2.487-10.021-3.958-15.001
				c-2.948-9.963-6.359-19.832-10.045-29.598c-3.695-9.764-7.677-19.432-12.036-28.931c-2.191-4.743-4.478-9.444-6.957-14.044
				c-1.26-2.287-2.533-4.571-3.943-6.769c-1.401-2.2-2.864-4.385-4.715-6.245c1.96,1.75,3.563,3.861,5.098,5.985
				c1.547,2.125,2.96,4.341,4.36,6.565c2.761,4.471,5.334,9.054,7.814,13.685c4.936,9.276,9.506,18.745,13.8,28.345
				c4.286,9.605,8.307,19.337,11.897,29.278c1.792,4.972,3.481,9.994,4.957,15.125c1.456,5.146,2.765,10.347,3.378,15.994
				L764.814,953.783z"/>
		</g>
	</g>
	<g>
		<path style="fill:#51AEF4;" d="M772.578,947.559c1.598-30.774,28.707-69.597,52.152-69.12
			c6.579,18.716-13.158,64.229-35.722,70.514C766.443,955.238,772.578,947.559,772.578,947.559z"/>
		<g>
			<path style="fill:#2797E2;" d="M786.761,941.878c0.358-2.286,1.062-4.667,1.852-7.001c0.798-2.342,1.707-4.666,2.667-6.973
				c1.924-4.615,4.065-9.161,6.333-13.643c2.272-4.481,4.676-8.902,7.251-13.222c1.293-2.156,2.63-4.288,4.053-6.361
				c0.721-1.029,1.448-2.057,2.236-3.035c0.784-0.98,1.596-1.95,2.578-2.745c-1.028,0.736-1.904,1.664-2.748,2.601
				c-0.85,0.937-1.64,1.924-2.425,2.916c-1.551,1.997-3.019,4.057-4.444,6.145c-2.84,4.183-5.515,8.478-8.065,12.85
				c-2.546,4.375-4.972,8.824-7.203,13.395c-1.114,2.286-2.181,4.602-3.152,6.981c-0.962,2.387-1.857,4.808-2.441,7.478
				L786.761,941.878z"/>
		</g>
	</g>
	<g>
		<path style="fill:#0E538C;" d="M328.464,947.559c1.598-30.774,28.707-69.597,52.152-69.12
			c6.579,18.716-13.158,64.229-35.722,70.514C322.329,955.238,328.464,947.559,328.464,947.559z"/>
		<g>
			<path style="fill:#0E538C;" d="M342.647,941.878c0.358-2.286,1.062-4.667,1.852-7.001c0.798-2.342,1.707-4.666,2.667-6.973
				c1.924-4.615,4.065-9.161,6.333-13.643c2.272-4.481,4.676-8.902,7.251-13.222c1.293-2.156,2.63-4.288,4.053-6.361
				c0.721-1.029,1.448-2.057,2.236-3.035c0.784-0.98,1.596-1.95,2.578-2.745c-1.028,0.736-1.904,1.664-2.748,2.601
				c-0.85,0.937-1.64,1.924-2.425,2.916c-1.551,1.997-3.019,4.057-4.444,6.145c-2.84,4.183-5.515,8.478-8.065,12.85
				c-2.546,4.375-4.972,8.824-7.203,13.395c-1.114,2.286-2.181,4.602-3.152,6.981c-0.962,2.387-1.857,4.808-2.441,7.478
				L342.647,941.878z"/>
		</g>
	</g>
	<g>
		<path style="fill:#2A94F4;" d="M897.469,946.107c0,0,1.351,3.727,7.182,4.893c1.177,0.24,2.539,0.371,4.109,0.338
			c6.452-0.098,16.445-2.855,31.779-11.879c37.479-22.079,38.187-111.912,17.426-142.34
			C915.669,807.483,885.612,890.123,897.469,946.107z"/>
		<g>
			<path style="fill:#2A94F4;" d="M904.651,951c1.177,0.24,2.539,0.371,4.109,0.338c0.022-0.251,0.054-0.49,0.076-0.741
				c1.373-12.555,3.433-25.076,5.939-37.5c2.496-12.435,5.46-24.782,8.991-36.966c1.776-6.092,3.705-12.151,5.929-18.091
				c0.578-1.471,1.122-2.964,1.744-4.425l0.915-2.201l0.981-2.158c1.362-2.855,2.779-5.721,4.686-8.272
				c-1.994,2.485-3.52,5.296-4.991,8.119l-1.068,2.136l-0.992,2.169c-0.676,1.449-1.275,2.921-1.907,4.381
				c-2.441,5.885-4.599,11.89-6.593,17.927c-3.978,12.108-7.4,24.39-10.364,36.792c-2.964,12.402-5.471,24.913-7.324,37.577
				C904.738,950.389,904.695,950.695,904.651,951z"/>
		</g>
	</g>
	<!-- <path style="fill:#F2F2F2;" d="M1066.523,1056.995H13.477c-7.412,0-13.477-6.065-13.477-13.477v-94.014
		c0-7.412,6.065-13.477,13.477-13.477h1053.045c7.412,0,13.477,6.065,13.477,13.477v94.014
		C1080,1050.93,1073.935,1056.995,1066.523,1056.995z"/>
	<ellipse style="fill:#F2F2F2;" cx="562.328" cy="988.34" rx="334.287" ry="14.171"/> -->
	<g>
		<polygon style="fill:#DF9481;" points="447.123,281.759 580.333,195.301 594.536,154.271 593.658,200.039 480.95,298.121 		"/>
		<g>
			<polygon style="fill:#FFBE55;" points="396.422,312.175 480.763,259.907 497.824,322.466 402.566,385.025 			"/>
			<polygon style="opacity:0.2;fill:#FFBE55;" points="396.422,312.175 480.763,259.907 497.824,322.466 402.566,385.025 			"/>
		</g>
		<polygon style="fill:#FFBE55;" points="224.675,702.298 189.258,773.015 184.248,703.385 200.96,695.611 182.647,692.85 
			182.709,682.919 224.508,681.991 		"/>
		<path style="fill:#093C59;" d="M359.575,481.863c0,0,40.512,153.518,28.785,173.773c-11.727,20.256-165.924,53.598-165.924,53.598
			l-0.387-30.144c0,0,107.769-49.934,120.563-46.736c-25.586-23.454-50.907-143.029-50.907-143.029L359.575,481.863z"/>
		<polygon style="fill:#FFBE55;" points="199.591,827.411 229.943,900.446 173.982,858.712 179.027,840.984 164.964,853.035 
			157.49,846.495 184.118,814.261 		"/>
		<path style="fill:#0B4870;" d="M351.938,483.238c0,0-89.944,213.38-143.773,357.746c-33.052,0-28.98-32.128-28.98-32.128
			s65.249-302.688,102.404-347.316C338.736,465.428,351.938,483.238,351.938,483.238z"/>
		<polygon style="fill:#DF9481;" points="291.704,385.025 182.962,485.578 124.267,496.149 182.502,499.998 298.215,422.032 		"/>
		<ellipse style="fill:#0B4870;" cx="389.632" cy="239.703" rx="44.868" ry="47.378"/>
		<path style="fill:#DF9481;" d="M432.013,208.021c0,0,12.031,75.07-1.926,90.099c-42.34-2.887-52.924-18.89-63.509-41.023
			C355.992,234.965,380.049,189.738,432.013,208.021z"/>
		<path style="fill:#0B4870;" d="M442.61,207.957c-2.157,16.45-65.946,58.426-79.931,51.1
			C360.681,229.089,377.402,174.572,442.61,207.957z"/>
		<path style="fill:#DF9481;" d="M373.038,260.677c-5.329-5.439-10.473-6.071-11.324,0.901c-0.77,6.306,7.495,15.569,13.489,14.107
			C381.197,274.224,373.038,260.677,373.038,260.677z"/>
		<g>
			<path style="fill:#0B4870;" d="M375.243,199.909c-14.485-19.935-39.886-31.379-64.415-29.021
				c-8.311,0.799-16.715,3.196-23.183,8.477c-6.467,5.281-10.656,13.825-9.186,22.044c2.418,13.52,18.677,22.928,17.141,36.577
				c-0.674,5.982-4.906,11.097-9.989,14.323s-10.986,4.861-16.792,6.453c-13.044,3.577-26.495,7.354-37.029,15.837
				s-17.44,23.018-12.939,35.773c2.925,8.29,10.349,15.8,8.556,24.406c-1.848,8.87-12.377,12.939-16.92,20.778
				c-4.451,7.678-2.126,17.996,3.78,24.62c5.906,6.624,14.659,10.058,23.385,11.677c14.068,2.611,31.074-0.361,38.041-12.859
				c4.852-8.705,3.409-19.624-0.108-28.949c-3.517-9.325-8.922-17.888-11.959-27.38c-3.036-9.492-3.31-20.72,2.814-28.582
				c6.427-8.251,17.729-10.459,27.938-12.73s21.52-6.183,25.768-15.74c3.84-8.637,0.771-19.85,6.727-27.189
				c5.357-6.603,15.161-6.676,23.236-9.337c11.116-3.663,19.985-13.465,22.522-24.89L375.243,199.909z"/>
		</g>
		<polygon style="fill:#DF9481;" points="402.566,285.081 400.479,310.335 417.602,351.575 377.402,311.465 375.243,272.776 		"/>
		<path style="fill:#FFBE55;" d="M425.323,399.172l-28.908,29.459l-26.887,71.366l-77.383-27.438l-26.182-9.294l25.738-22.508
			c0,0-26.611-27.729-31.802-48.032c48.506-41.096,85.743-74.092,117.499-81.257h8.467l31.74,40.1L425.323,399.172z"/>
		<polygon style="opacity:0.5;fill:#FFBE55;" points="342.611,395.865 292.145,472.56 265.962,463.266 291.701,440.758 		"/>
	</g>
	<g>
		<polygon style="fill:#FFBE55;" points="902.519,702.355 959.022,776.988 938.041,660.176 894.485,668.291 		"/>
		<path style="fill:#B1D9F2;" d="M765.994,511.098c-16.666,49.605-36.665,119.962-11.07,159.937s152.348,33.701,152.348,33.701
			l-5.004-36.888c0,0-87.818-17.917-84.003-29.338c3.815-11.421,25.834-93.83,22.502-104.916
			c-3.332-11.086-7.887-44.477-7.887-44.477L765.994,511.098z"/>
		<polygon style="fill:#FFBE55;" points="921.702,847.781 855.961,914.421 968.548,876.875 954.259,834.936 		"/>
		<path style="fill:#CCE9FF;" d="M772.288,501.727C773.177,519.401,915.529,850.3,915.529,850.3l41.749-10.01
			c0,0-75.59-303.877-83.334-343.679C866.199,456.81,772.288,501.727,772.288,501.727z"/>
		<polygon style="fill:#FFE3CA;" points="928.862,398.317 940.711,413.128 969.28,512.742 977.009,554.731 956.526,548.793 
			952.374,521.762 947.054,532.426 941.212,533.506 948.45,510.58 915.609,428.972 894.863,415.079 		"/>
		<polygon style="fill:#FFE3CA;" points="748.869,274.828 611.482,195.176 594.536,154.271 593.658,200.039 715.908,292.869 		"/>
		<polygon style="fill:#0B3E5B;" points="796.891,301.024 731.764,253.81 697.371,290.926 775.449,358.555 		"/>
		<path style="fill:#0B4870;" d="M796.891,301.024c-2.611,2.326-27.725,21.448-39.291,43.269
			c-11.566,21.822,0.813,175.851,0.813,175.851l134.528-6.77l-26.853-113.787l26.808,28.949l46.619-39.171
			c0,0-49.598-67.683-60.119-74.724C859.668,301.44,796.891,301.024,796.891,301.024z"/>
		<path style="fill:#0B4870;" d="M800.297,193.86c10.753,0.798,63.659,9.258,19.884,73.287
			C810.987,284.013,800.297,193.86,800.297,193.86z"/>
		<path style="fill:#FFE3CA;" d="M754.312,208.889c0,0-6.707,67.338,7.987,81.646c10.535-1.253,26.863-1.592,33.853-4.199
			c20.969-7.82,17.815-22.376,25.991-32.301C837.742,235.099,805.29,188.017,754.312,208.889z"/>
		<path style="fill:#FFE3CA;" d="M793.537,275.907l2.199,26.084l-4.519,14.905c-2.037,5.701,5.246,10.064,9.311,5.578l22.205-20.279
			l-1.682-48.106L793.537,275.907z"/>
		<g>
			<path style="fill:#0B4870;" d="M778.039,227.523c-5.09-0.274-10.093,0.907-15.097,1.881s-10.571,1.263-14.812-1.564
				c-5.816-3.877-6.924-11.943-11.237-17.443c-3.07-3.915-7.613-6.337-11.422-9.537c-0.56-0.471-1.123-0.983-1.405-1.658
				c-0.637-1.526,0.36-3.218,1.412-4.495c3.741-4.541,8.85-8.024,14.561-9.439c5.711-1.415,12.006-0.669,17.026,2.4
				c4.577,2.798,8.162,7.452,13.364,8.764c7.85,1.98,15.223-4.401,23.186-5.866c2.768-0.509,5.646-0.409,8.372,0.291
				c1.734,0.445,3.429,1.145,4.82,2.273c3.82,3.097,4.68,8.769,8.351,12.041c3.824,3.408,9.824,3.447,13.616,6.891
				c2.645,2.402,3.738,6.027,4.681,9.473c1.179,4.31,2.218,9.233-0.197,12.992c-1.053,1.639-3.747,16.214-5.41,17.229
				c-9.565,5.839-19.536-5.753-28.655-10.267c-3.298-1.633-5.944-4.284-8.005-7.333
				C789.477,231.624,785.693,227.936,778.039,227.523z"/>
		</g>
		<polygon style="fill:#0B4870;" points="810.612,233.884 810.863,258.261 815.722,258.017 823.621,233.229 		"/>
		<path style="fill:#FFE3CA;" d="M817.287,236.935c9.543-7.255,12.593-4.678,11.785,6.192
			c-0.808,10.871-13.349,14.889-13.349,14.889L817.287,236.935z"/>
		
			<ellipse transform="matrix(0.9987 -0.0503 0.0503 0.9987 -18.5501 39.3793)" style="fill:#FFBE55;" cx="773.713" cy="388.527" rx="13.869" ry="29.846"/>
	</g>
	
		<line style="fill:none;stroke:#FFBE55;stroke-width:2;stroke-linecap:round;stroke-miterlimit:10;" x1="577.846" y1="163.858" x2="555.692" y2="140.642"/>
	
		<line style="fill:none;stroke:#FFBE55;stroke-width:2;stroke-linecap:round;stroke-miterlimit:10;" x1="607.996" y1="163.858" x2="630.15" y2="140.642"/>
	
		<line style="fill:none;stroke:#FFBE55;stroke-width:2;stroke-linecap:round;stroke-miterlimit:10;" x1="617.618" y1="128.328" x2="619.073" y2="126.803"/>
	
		<line style="fill:none;stroke:#FFBE55;stroke-width:2;stroke-linecap:round;stroke-miterlimit:10;" x1="607.996" y1="138.411" x2="615.077" y2="130.99"/>
	
		<line style="fill:none;stroke:#FFBE55;stroke-width:2;stroke-linecap:round;stroke-miterlimit:10;" x1="585.596" y1="138.411" x2="578.515" y2="130.99"/>
	<path style="fill:#FFBE55;" d="M559.774,107.135c-21.513,0-38.939,17.437-38.939,38.95c0-21.513-17.437-38.95-38.95-38.95
		c21.513,0,38.95-17.437,38.95-38.95C520.835,89.698,538.261,107.135,559.774,107.135z"/>
	<path style="fill:#FFBE55;" d="M646.215,266.157c-10.775,0-19.503,8.733-19.503,19.508c0-10.775-8.733-19.508-19.508-19.508
		c10.775,0,19.508-8.733,19.508-19.508C626.713,257.423,635.441,266.157,646.215,266.157z"/>
</g>
</svg>
